<mxfile host="Electron" modified="2023-05-04T15:16:03.760Z" agent="Mozilla/5.0 (Windows NT 10.0; Win64; x64) AppleWebKit/537.36 (KHTML, like Gecko) draw.io/21.2.1 Chrome/112.0.5615.87 Electron/24.1.2 Safari/537.36" etag="Jml4QsRVdb4yvJpTFojg" version="21.2.1" type="device">
  <diagram name="第 1 页" id="tqHv6gNXIxX08ADT5tFh">
    <mxGraphModel dx="898" dy="579" grid="1" gridSize="10" guides="1" tooltips="1" connect="1" arrows="1" fold="1" page="1" pageScale="1" pageWidth="827" pageHeight="1169" math="0" shadow="0">
      <root>
        <mxCell id="0" />
        <mxCell id="1" parent="0" />
        <mxCell id="c7tfhzFwUYpsYpKX5peI-1" value="" style="rounded=0;whiteSpace=wrap;html=1;strokeColor=default;shadow=1;sketch=1;curveFitting=1;jiggle=2;fillColor=#ffe6cc;" parent="1" vertex="1">
          <mxGeometry x="240" y="120" width="440" height="280" as="geometry" />
        </mxCell>
        <mxCell id="c7tfhzFwUYpsYpKX5peI-2" value="&lt;font style=&quot;font-size: 18px;&quot;&gt;&lt;b&gt;浏览器&lt;/b&gt;&lt;/font&gt;" style="text;html=1;strokeColor=none;fillColor=none;align=center;verticalAlign=middle;whiteSpace=wrap;rounded=0;" parent="1" vertex="1">
          <mxGeometry x="250" y="130" width="60" height="30" as="geometry" />
        </mxCell>
        <mxCell id="c7tfhzFwUYpsYpKX5peI-5" style="edgeStyle=orthogonalEdgeStyle;rounded=0;orthogonalLoop=1;jettySize=auto;html=1;exitX=0.5;exitY=1;exitDx=0;exitDy=0;entryX=0.5;entryY=0;entryDx=0;entryDy=0;strokeWidth=3;strokeColor=#FF5A26;" parent="1" source="c7tfhzFwUYpsYpKX5peI-3" target="c7tfhzFwUYpsYpKX5peI-4" edge="1">
          <mxGeometry relative="1" as="geometry" />
        </mxCell>
        <mxCell id="c7tfhzFwUYpsYpKX5peI-3" value="&lt;b&gt;&lt;font style=&quot;font-size: 16px;&quot;&gt;待执行的JS代码（调用Web API）&lt;/font&gt;&lt;/b&gt;" style="rounded=0;whiteSpace=wrap;html=1;sketch=1;curveFitting=1;jiggle=2;strokeColor=default;fillColor=#918881;shadow=1;align=center;" parent="1" vertex="1">
          <mxGeometry x="335" y="261" width="250" height="40" as="geometry" />
        </mxCell>
        <mxCell id="c7tfhzFwUYpsYpKX5peI-4" value="&lt;b&gt;&lt;font style=&quot;font-size: 16px;&quot;&gt;JavaScript解析引擎&lt;/font&gt;&lt;/b&gt;" style="rounded=0;whiteSpace=wrap;html=1;sketch=1;curveFitting=1;jiggle=2;strokeColor=default;fillColor=#FF5A26;shadow=1;" parent="1" vertex="1">
          <mxGeometry x="335" y="341" width="250" height="40" as="geometry" />
        </mxCell>
        <mxCell id="igsXjAd4R2TSyEFnvB47-4" style="edgeStyle=orthogonalEdgeStyle;rounded=0;orthogonalLoop=1;jettySize=auto;html=1;exitX=0.5;exitY=1;exitDx=0;exitDy=0;entryX=0.155;entryY=0.043;entryDx=0;entryDy=0;entryPerimeter=0;strokeWidth=3;strokeColor=#0083A0;" edge="1" parent="1" source="igsXjAd4R2TSyEFnvB47-1" target="c7tfhzFwUYpsYpKX5peI-3">
          <mxGeometry relative="1" as="geometry" />
        </mxCell>
        <mxCell id="igsXjAd4R2TSyEFnvB47-1" value="&lt;b&gt;&lt;font style=&quot;font-size: 16px;&quot;&gt;DOM API&lt;/font&gt;&lt;/b&gt;" style="rounded=0;whiteSpace=wrap;html=1;sketch=1;curveFitting=1;jiggle=2;strokeColor=default;fillColor=#0083A0;shadow=1;align=center;" vertex="1" parent="1">
          <mxGeometry x="335" y="170" width="76" height="40" as="geometry" />
        </mxCell>
        <mxCell id="igsXjAd4R2TSyEFnvB47-5" style="edgeStyle=orthogonalEdgeStyle;rounded=0;orthogonalLoop=1;jettySize=auto;html=1;exitX=0.5;exitY=1;exitDx=0;exitDy=0;entryX=0.5;entryY=0;entryDx=0;entryDy=0;strokeWidth=3;strokeColor=#0083A0;" edge="1" parent="1" source="igsXjAd4R2TSyEFnvB47-2" target="c7tfhzFwUYpsYpKX5peI-3">
          <mxGeometry relative="1" as="geometry" />
        </mxCell>
        <mxCell id="igsXjAd4R2TSyEFnvB47-2" value="&lt;b&gt;&lt;font style=&quot;font-size: 16px;&quot;&gt;DOM API&lt;/font&gt;&lt;/b&gt;" style="rounded=0;whiteSpace=wrap;html=1;sketch=1;curveFitting=1;jiggle=2;strokeColor=default;fillColor=#0083A0;shadow=1;align=center;" vertex="1" parent="1">
          <mxGeometry x="422" y="170" width="76" height="40" as="geometry" />
        </mxCell>
        <mxCell id="igsXjAd4R2TSyEFnvB47-6" style="edgeStyle=orthogonalEdgeStyle;rounded=0;orthogonalLoop=1;jettySize=auto;html=1;entryX=0.85;entryY=-0.011;entryDx=0;entryDy=0;entryPerimeter=0;strokeWidth=3;strokeColor=#0083A0;" edge="1" parent="1" source="igsXjAd4R2TSyEFnvB47-3" target="c7tfhzFwUYpsYpKX5peI-3">
          <mxGeometry relative="1" as="geometry" />
        </mxCell>
        <mxCell id="igsXjAd4R2TSyEFnvB47-3" value="&lt;b&gt;&lt;font style=&quot;font-size: 16px;&quot;&gt;DOM API&lt;/font&gt;&lt;/b&gt;" style="rounded=0;whiteSpace=wrap;html=1;sketch=1;curveFitting=1;jiggle=2;strokeColor=default;fillColor=#0083A0;shadow=1;align=center;" vertex="1" parent="1">
          <mxGeometry x="509" y="170" width="76" height="40" as="geometry" />
        </mxCell>
      </root>
    </mxGraphModel>
  </diagram>
</mxfile>
